<?xml version="1.0" encoding="UTF-8"?>
<svg width="40px" height="26px" viewBox="0 0 40 26" version="1.1" xmlns="http://www.w3.org/2000/svg" xmlns:xlink="http://www.w3.org/1999/xlink">
    <!-- Generator: Sketch 49 (51002) - http://www.bohemiancoding.com/sketch -->
    <title>Group</title>
    <desc>Created with Sketch.</desc>
    <defs></defs>
    <g id="#design" stroke="none" stroke-width="1" fill="none" fill-rule="evenodd">
        <g id="04_01--KauffmanFellows--press" transform="translate(-860.000000, -2774.000000)">
            <g id="Journal" transform="translate(220.000000, 2720.000000)">
                <g id="title" transform="translate(640.000000, 0.000000)">
                    <g id="Group" transform="translate(0.000000, 54.000000)">
                        <path d="M21.6006265,25.1249639 C22.1432771,25.7702651 23.030506,25.990506 23.724,25.5100241 L39.0454458,14.7948434 C39.9225542,14.1625542 39.9924337,13.6025542 39.9924337,12.6849639 L39.9924337,4.09074699 C39.9924337,3.49701205 39.9948434,2.84785542 39.9948434,1.77315663 C39.8493012,2.84785542 38.6883373,3.50568675 37.4112289,4.38520482 C36.9418313,4.70954217 22.2753253,15.0348434 22.2753253,15.0348434 C21.3986988,15.6676145 21.3293012,16.2271325 21.3293012,17.144241 C21.3293012,17.7697831 21.3268916,23.5360482 21.3268916,23.5360482 C21.3268916,24.2300241 21.2358072,24.6917108 21.6006265,25.1249639" id="Fill-1" fill="#CDCECA"></path>
                        <path d="M23.910506,21.7015904 C24.3799036,21.377253 35.7138795,13.4678554 35.7138795,13.4678554 C36.590506,12.8355663 36.6603855,12.2760482 36.6603855,11.3584578 L36.6603855,2.76375904 C36.6603855,2.16954217 36.6627952,1.52086747 36.6627952,0.446650602 C36.517253,1.52086747 35.3558072,2.1786988 34.0791807,3.05773494 C33.6097831,3.38207229 22.2753253,11.2914699 22.2753253,11.2914699 C21.3986988,11.924241 21.3293012,12.483759 21.3293012,13.4008675 L21.3293012,21.9946024 C21.3293012,22.5893012 21.3268916,23.2379759 21.3268916,24.3126747 C21.4719518,23.2379759 22.6333976,22.5806265 23.910506,21.7015904" id="Fill-3" fill="#DD4539"></path>
                        <path d="M3.58573494,4.91175904 C6.65657831,7.06983133 17.9707952,15.0351325 17.9707952,15.0351325 C18.8474217,15.6674217 18.9168193,16.2269398 18.9168193,17.1445301 L18.9168193,13.4009157 C18.9168193,12.4838072 18.8474217,11.9242892 17.9707952,11.2915181 C17.9707952,11.2915181 6.63585542,3.38212048 6.16645783,3.05778313 C4.88983133,2.17874699 3.72886747,1.52091566 3.58284337,0.446216867 C3.58284337,1.52091566 3.58573494,2.16959036 3.58573494,2.76380723 L3.58573494,4.91175904 Z" id="Fill-5" fill="#EA882D"></path>
                        <path d="M18.9194217,23.5360964 C18.9194217,23.5360964 18.9165301,18.1245301 18.9165301,17.218506 L18.9165301,21.9948916 C18.9165301,22.5891084 18.9194217,23.2382651 18.9194217,24.3124819 C18.7733976,23.2382651 17.6124337,22.5809157 16.3358072,21.7013976 C15.8664096,21.3775422 4.53195181,13.4676627 4.53195181,13.4676627 C3.6553253,12.8353735 3.58592771,12.2763373 3.58592771,11.3582651 L3.58592771,4.91151807 C3.16038554,4.61272289 2.89146988,4.42428916 2.83460241,4.38525301 C1.5579759,3.50573494 0.396048193,2.84790361 0.25146988,1.77320482 C0.25146988,2.84790361 0.25339759,3.49706024 0.25339759,4.09079518 L0.25339759,12.685012 C0.25339759,13.6026024 0.323277108,14.1626024 1.19990361,14.7948916 L16.5213494,25.5100723 C17.2153253,25.9905542 18.1030361,25.7703133 18.6456867,25.125012 C19.0100241,24.6912771 18.9194217,24.2295904 18.9194217,23.5360964" id="Fill-7" fill="#DD4539"></path>
                        <path d="M18.9194217,24.3126265 C18.9194217,23.2384096 18.9165301,22.589253 18.9165301,21.9945542 L18.9165301,17.2172048 L18.9165301,17.1444337 C18.9165301,16.2273253 18.8476145,15.6678072 17.970506,15.0355181 C17.970506,15.0355181 6.65677108,7.06973494 3.58592771,4.91118072 L3.58592771,11.3584096 C3.58592771,12.276 3.6553253,12.8355181 4.53195181,13.4678072 C4.53195181,13.4678072 15.8664096,21.3772048 16.3358072,21.7015422 C17.6124337,22.5805783 18.7733976,23.2384096 18.9194217,24.3126265" id="Fill-9" fill="#DB372F"></path>
                    </g>
                </g>
            </g>
        </g>
    </g>
</svg>