<?xml version="1.0" encoding="UTF-8"?>
<svg width="24px" height="20px" viewBox="0 0 24 20" version="1.1" xmlns="http://www.w3.org/2000/svg" xmlns:xlink="http://www.w3.org/1999/xlink">
    <!-- Generator: Sketch 49 (51002) - http://www.bohemiancoding.com/sketch -->
    <title>Fill 72</title>
    <desc>Created with Sketch.</desc>
    <defs></defs>
    <g id="#design" stroke="none" stroke-width="1" fill="none" fill-rule="evenodd">
        <g id="02_02--KauffmanFellows--about" transform="translate(-566.000000, -6307.000000)" fill="#1086C2">
            <g id="Pledge" transform="translate(260.000000, 5200.000000)">
                <g id="paper" transform="translate(120.000000, 560.000000)">
                    <g id="Group-2" transform="translate(186.000000, 468.000000)">
                        <path d="M23.8736842,79.6578947 C23.8376947,79.5678247 23.8235473,79.5713769 23.8736842,79.6578947 C23.8748315,79.6308441 23.8359263,79.8009572 23.7473684,79.9210526 C23.6892736,80.1572342 23.6448104,80.328926 23.6210526,80.3157895 C23.6824525,80.3926032 23.6261157,80.4373352 23.4947368,80.4473684 C23.328263,80.5152215 23.0767682,80.7465121 23.1157895,80.8421053 C23.0767682,80.9453062 22.9656102,81.0872644 22.8631579,81.2368421 C22.5429575,81.4386735 22.5022838,81.4815636 22.3578947,81.7631579 C22.2323469,81.8566543 22.1238416,81.9457235 22.1052632,81.8947368 C22.0153363,81.9457235 21.9683468,81.9862454 21.9789474,82.0263158 C21.9621573,82.085182 21.7447678,82.3200248 21.4736842,82.5526316 C21.2197992,82.7952362 20.7480096,83.2424243 20.4631579,83.6052632 C20.119841,83.8606464 19.660683,84.2957306 19.4526316,84.5263158 C19.1664092,84.7410768 18.8988723,84.9903918 18.8210526,85.0526316 C18.6770617,85.2176039 18.2832089,85.5871689 17.9368421,85.8421053 C17.8392088,85.9855465 17.8237983,85.9872568 17.8105263,85.8421053 C17.8237983,85.811355 17.8782404,85.7366263 17.9368421,85.7105263 C18.011251,85.6875527 18.200851,85.5255966 18.3157895,85.3157895 C18.5862406,85.1212986 18.6525564,85.0039429 18.5684211,84.9210526 C18.5657774,84.7967287 18.5609774,84.7968602 18.5684211,84.9210526 C18.5179037,84.9846029 18.4594195,85.0413073 18.4421053,85.0526316 C18.2645142,85.0413073 18.4006827,84.7780465 18.5684211,84.6578947 C18.636388,84.7000287 18.8724723,84.4914988 19.0736842,84.2631579 C19.4622409,83.8707769 19.4876303,83.8238084 19.4526316,83.7368421 C19.3256934,83.5537062 19.3297356,83.5138421 19.4526316,83.3421053 C19.5456093,83.2891298 19.5517988,83.2909717 19.5789474,83.4736842 C19.5517988,83.6619839 19.6984514,83.6414598 19.9578947,83.3421053 C20.0749989,83.2667638 20.2058621,83.1695375 20.2105263,83.2105263 C20.2869569,83.1695375 20.3031253,83.1407249 20.3368421,83.0789474 C20.2479253,83.0477087 20.4102411,82.8794376 20.9684211,82.4210526 C21.1311255,82.2535847 21.2215676,82.0296617 21.0947368,82.1578947 C20.8916307,82.242007 21.033736,81.9438816 21.2210526,81.6315789 C21.4273361,81.543662 21.5331888,81.3892052 21.4736842,81.3684211 C21.456894,81.2607981 21.6934836,81.0099044 21.8526316,80.9736842 C21.981231,81.0099044 22.0568942,80.8401861 21.9789474,80.7105263 C21.8710836,80.6467861 21.9424521,80.5058804 22.1052632,80.4473684 C22.1273784,80.5058804 22.2188311,80.4339145 22.2315789,80.3157895 C22.3932732,80.1744691 22.4227048,79.9300221 22.3578947,79.9210526 C22.2667048,79.9300221 22.0154626,80.1903884 21.7263158,80.5789474 C21.6443467,80.6616529 21.5459467,80.7237514 21.4736842,80.7105263 C21.4389572,80.6549431 21.4730625,80.5902133 21.6,80.4473684 C21.7115467,80.3977343 21.8603468,80.2468297 21.9789474,80.1842105 C22.012431,80.0485618 22.1230837,79.9166025 22.2315789,79.7894737 C22.3201364,79.710046 22.3149574,79.1547118 22.2315789,79 C22.0357995,78.9707845 21.9917152,78.9777574 21.9789474,79.1315789 C21.9228731,79.1647107 21.9420731,79.1894449 21.9789474,79.1315789 C22.05361,79.1448445 22.1086837,79.1981281 22.1052632,79.2631579 C22.1685574,79.4288925 22.1148732,79.5230927 21.8526316,79.7894737 C21.6927257,79.9363372 21.5219467,80.0739538 21.4736842,80.0526316 C21.4481782,80.0739538 21.4179888,80.1269743 21.4736842,80.1842105 C21.4179888,80.3293207 21.0750413,80.6855976 21.0947368,80.5789474 C21.0639255,80.5087748 21.0434623,80.518379 20.9684211,80.5789474 C20.9714623,80.7128315 20.4555885,81.2258019 20.3368421,81.2368421 C20.3352095,81.2258019 20.4323464,81.0937111 20.5894737,80.9736842 C20.7394201,80.7705884 20.8649781,80.5979756 20.8421053,80.5789474 C20.8649781,80.4987759 20.9427886,80.4148377 21.0947368,80.3157895 C21.2293992,80.2551182 22.16881,79.3540322 22.1052632,79.3947368 C22.041231,79.3540322 21.9823679,79.3817923 21.6,79.5263158 C21.514494,79.6304494 21.4858204,79.6304494 21.4736842,79.5263158 C21.543673,79.5328285 21.5314204,79.4980954 21.4736842,79.5263158 C21.4508309,79.4980954 21.4179888,79.5647987 21.4736842,79.6578947 C21.4179888,79.7338592 21.3875466,79.7749074 21.3473684,79.7894737 C21.2508729,79.6870222 20.9806834,79.9776485 21.0947368,80.0526316 C21.0615255,80.1139494 21.0187044,80.1459196 20.9684211,80.1842105 C20.7893149,80.1459196 20.5686412,80.3420824 20.5894737,80.4473684 C20.6752517,80.5217997 20.4643043,80.6708624 20.3368421,80.5789474 C20.2446411,80.5831088 20.0729779,80.8088737 20.2105263,80.8421053 C20.1701147,80.9100469 20.1651884,80.966225 20.0842105,80.9736842 C20.1000094,81.0760814 20.0737358,81.0739764 20.0842105,80.9736842 C19.9916305,80.935702 19.8827462,80.9893803 19.5789474,81.2368421 C19.0806407,81.6450984 18.6044301,82.0529487 18.1894737,82.4210526 C17.9747457,82.6226234 17.751293,82.8060245 17.6842105,82.8157895 C17.6129772,82.8852264 17.5621982,82.9385101 17.5578947,82.9473684 C17.5913772,83.0450774 17.3240929,83.3117589 17.3052632,83.2105263 C17.2279666,83.2499235 17.1821139,83.2830778 17.1789474,83.3421053 C17.1365139,83.4068801 17.0717139,83.4575325 17.0526316,83.4736842 C16.9590402,83.4575325 16.7832085,83.5951491 16.6736842,83.7368421 C16.4662821,83.9316913 16.2572294,84.1120664 16.1684211,84.1315789 C16.063461,84.2162656 15.9275451,84.3684858 15.9157895,84.5263158 C15.789103,84.6362198 15.6509135,84.7784412 15.5368421,84.7894737 C15.264766,84.9334243 13.5499024,86.2943287 13.5157895,86.5 C13.4712076,86.5081211 13.4112076,86.5531162 13.3894737,86.5 C13.305355,86.5531162 13.2620286,86.6016636 13.2631579,86.6315789 C13.2620286,86.7204664 13.2146602,86.7690138 13.1368421,86.7631579 C13.0990812,86.7690138 13.0163443,86.8500576 13.0105263,86.8947368 C12.9296917,87.0480623 12.8388706,87.1289746 12.7578947,87.1578947 C12.70346,87.1289746 12.6281758,87.1626551 12.6315789,87.1578947 C12.5792916,87.2451461 12.4416073,87.3561866 12.2526316,87.4210526 C12.1541125,87.5451134 11.9157546,87.738645 11.7473684,87.8157895 C11.5044702,88.1342598 11.3186597,88.276218 10.7368421,88.7368421 C10.5457331,88.8002398 10.2347436,89.0139008 9.97894737,89.1315789 C9.80792241,89.3100527 9.55566971,89.4660883 9.47368421,89.5263158 C9.36594334,89.5516053 9.18922751,89.6652772 9.09473684,89.7894737 C8.94682744,89.8578878 8.82228004,89.936695 8.84210526,89.9210526 C8.76013265,89.9369581 8.56371154,90.0441832 8.33684211,90.1842105 C7.45895335,90.7362131 5.80851079,91.3104926 5.30526316,91.2368421 C5.02888952,91.2157661 5.01095267,91.1936633 4.8,90.5789474 C4.51440517,90.0640495 4.1594577,89.3221566 3.53684211,87.9473684 C3.38198381,87.7466704 3.33688906,87.4948557 3.28421053,87.0263158 C3.30265747,86.5998217 3.25756272,86.3222203 3.15789474,86.2368421 C3.0929732,86.0605383 3.07048898,86.0530392 3.03157895,86.1052632 C2.96084685,86.2570959 2.93836263,86.2549908 2.77894737,86.1052632 C2.64745729,86.0165958 2.56914148,86.0048865 2.27368421,86.1052632 C1.89941498,86.1318464 1.65019386,86.3843188 1.64210526,86.7631579 C1.65019386,86.9112351 1.63756228,86.9216287 1.38947368,86.8947368 C1.31242534,86.8471632 1.23549901,86.8584777 1.26315789,86.8947368 C1.23549901,86.9500467 1.19482531,86.9850429 1.13684211,87.0263158 C0.989941045,86.9850429 0.815119945,87.1605501 0.757894737,87.2894737 C0.790740991,87.4981449 0.769014669,87.509591 0.378947368,87.5526316 C0.258572424,87.5241947 0.234825049,87.5490604 0.252631579,87.6842105 C0.256298739,87.8754722 0.228509258,87.920862 0.126315789,87.9473684 C-0.049764503,87.920862 -0.0426908169,88.0358494 0.126315789,88.3421053 C0.293688223,88.6485458 0.303540857,88.7085393 0.252631579,88.8684211 C0.14375134,88.9361461 0.151582921,88.9627221 0.252631579,89 C0.371246139,89.0756046 0.471288272,89.1836191 0.505263158,89.2631579 C0.546319871,89.3603104 0.619961997,89.4326709 0.631578947,89.3947368 C0.731751501,89.4326709 0.754867297,89.4838496 0.757894737,89.5263158 C0.714446233,89.6450162 0.751962033,89.750531 0.757894737,89.7894737 C0.886109438,89.8702548 1.02341474,90.1452249 1.13684211,90.4473684 C1.22690953,90.6996381 1.41764643,91.1124879 1.51578947,91.3684211 C1.68076229,91.5677015 1.78838337,91.7854409 1.76842105,91.7631579 C1.78838337,91.8625378 1.8444676,91.9801565 1.89473684,92.0263158 C2.21229928,92.5440425 2.37499406,92.9539978 2.27368421,93.0789474 C2.22985718,93.1051655 2.25069929,93.2066018 2.4,93.4736842 C2.48918356,93.6969432 2.52076252,93.8240346 2.52631579,93.8684211 C2.42210986,93.8240346 2.46821514,93.9149457 2.52631579,94 C2.67246782,94.1370268 2.7560889,94.287142 2.77894737,94.3947368 C2.7560889,94.4318631 2.82139418,94.6010552 2.90526316,94.7894737 C2.99735212,94.8976018 3.03196266,95.0406125 3.03157895,95.1842105 C2.97903633,95.2600623 2.99091002,95.3358435 3.03157895,95.3157895 C3.06998372,95.3358435 3.10168899,95.3783389 3.15789474,95.4473684 C3.10168899,95.4821434 3.15613111,95.5875266 3.28421053,95.7105263 C3.28914168,95.7410625 3.39827855,95.9172276 3.41052632,96.1052632 C3.57840491,96.2899501 3.72341548,96.5007166 4.29473684,97.2894737 C4.95651055,98.138696 5.59718441,98.8407248 5.81052632,99 C6.02804769,99.0226787 6.19630037,99.0200474 6.18947368,98.8684211 C6.27284776,98.8911141 6.41470043,98.8066496 6.56842105,98.7368421 C6.71230051,98.6825842 6.83406896,98.6045663 6.82105263,98.6052632 C6.83406896,98.3336748 7.65107972,97.3611492 8.21052632,96.8947368 C8.40038518,96.7781864 8.77225897,96.4733512 9.09473684,96.2368421 C9.33411176,95.9982714 9.74463818,95.6817269 9.97894737,95.5789474 C10.1866173,95.3834699 10.4335647,95.1971744 10.4842105,95.1842105 C10.5953753,95.0402179 10.6841753,94.9758828 10.7368421,94.9210526 C10.7391227,94.9758828 10.9831648,94.8428709 11.2421053,94.6578947 C11.657944,94.4376519 11.7315861,94.3664755 11.6210526,94.2631579 C11.5998387,94.2010988 11.6050176,94.1892579 11.7473684,94.2631579 C11.8270809,94.278064 12.3144073,93.959283 12.6315789,93.6052632 C12.6989127,93.5031485 12.8324285,93.3921079 12.8842105,93.3421053 C12.9299443,93.3921079 13.1635023,93.197787 13.3894737,92.9473684 C13.6370603,92.7227072 13.8583656,92.5282547 13.8947368,92.5526316 C13.925692,92.5282547 13.9532288,92.4985211 13.8947368,92.4210526 C13.9532288,92.4257659 14.0655236,92.3238033 14.1473684,92.2894737 C14.5260711,92.0272567 14.7826185,91.7779417 14.7789474,91.6315789 C14.7826185,91.6257215 14.8370606,91.567833 14.9052632,91.5 C15.0828712,91.4775797 15.3356292,91.2219497 15.2842105,91.1052632 C15.3356292,91.0484159 15.3865345,91.0173667 15.4105263,90.9736842 C15.5643871,91.0572308 16.0921347,90.5595218 16.0421053,90.4473684 C16.0954189,90.4058544 16.1659031,90.3632274 16.2947368,90.3157895 C16.3456505,90.30626 16.3728084,90.2723163 16.2947368,90.1842105 C16.1896505,90.1935091 16.217061,90.1125968 16.4210526,90.0526316 C16.534619,90.0877311 16.8625349,89.7634244 16.9263158,89.5263158 C16.8956296,89.5237136 16.9704086,89.458326 17.0526316,89.3947368 C17.1462402,89.4312237 17.2018192,89.3709671 17.1789474,89.2631579 C17.2018192,89.2073007 17.2436297,89.144676 17.3052632,89.1315789 C17.4139034,89.144676 17.6856088,88.9011499 17.6842105,88.7368421 C17.6856088,88.7494559 17.7400509,88.7122231 17.8105263,88.7368421 C17.9050194,88.7107759 17.9091878,88.6985404 17.8105263,88.6052632 C17.7541983,88.5963147 17.7907035,88.555135 17.9368421,88.4736842 C18.1418615,88.4022569 18.2238405,88.3247653 18.1894737,88.2105263 C18.1802616,88.2064887 18.2494826,88.1370226 18.4421053,88.0789474 C18.5536511,88.0174304 18.5869985,87.9716459 18.5684211,87.8157895 C18.5166406,87.7410131 18.5363459,87.7043066 18.5684211,87.6842105 C18.7841775,87.6998334 19.0407249,87.5085385 18.9473684,87.4210526 C18.953946,87.4181536 19.1038829,87.2702749 19.3263158,87.1578947 C19.5198409,86.9600456 19.6899883,86.8062466 19.7052632,86.7631579 C19.6899883,86.7407274 19.752262,86.6969164 19.8315789,86.6315789 C19.9042199,86.6554735 19.9671252,86.5789029 19.9578947,86.5 C19.9687673,86.4286561 20.1421989,86.2384137 20.3368421,86.1052632 C20.6806833,85.8184594 20.7848938,85.6947887 20.7157895,85.5789474 C20.721357,85.4861272 20.894157,85.2187879 21.2210526,84.9210526 C21.2350834,84.9127687 21.3211045,84.7964655 21.3473684,84.6578947 C21.3913361,84.6381933 21.4816519,84.4762373 21.6,84.3947368 C21.7709152,84.0195765 21.9795889,83.5130527 21.9789474,83.4736842 C21.9152942,83.3384665 22.1906627,83.0256058 22.2315789,83.0789474 C22.339968,83.0256058 23.1458629,82.1587266 23.3684211,81.8947368 C23.395463,81.8125801 23.4832525,81.7296944 23.4947368,81.7631579 C23.6472104,81.7296944 23.7544526,81.4893259 23.6210526,81.3684211 C23.6272525,81.2771121 23.6383683,81.2013309 23.7473684,81.1052632 C23.8556315,80.8782082 23.8716736,80.6738884 23.7473684,80.5789474 C23.7022841,80.615079 23.7135262,80.5495598 23.7473684,80.4473684 C23.8572736,80.3210321 23.8912526,80.1892044 23.8736842,80.1842105 C23.8467894,80.0685596 23.8742,80.0025142 23.8736842,79.9210526 C24.044979,79.9342321 24.0102421,79.6704451 23.8736842,79.6578947" id="Fill-72"></path>
                    </g>
                </g>
            </g>
        </g>
    </g>
</svg>