<?xml version="1.0" encoding="UTF-8" standalone="no"?>
<svg xmlns:dc="http://purl.org/dc/elements/1.1/" xmlns:cc="http://creativecommons.org/ns#" xmlns:rdf="http://www.w3.org/1999/02/22-rdf-syntax-ns#" xmlns:svg="http://www.w3.org/2000/svg" xmlns="http://www.w3.org/2000/svg" viewBox="0 0 524.62665 278.77332" height="278.77332" width="524.62665" xml:space="preserve" id="svg2" version="1.1"><metadata id="metadata8"><rdf:RDF><cc:Work rdf:about=""><dc:format>image/svg+xml</dc:format><dc:type rdf:resource="http://purl.org/dc/dcmitype/StillImage"/></cc:Work></rdf:RDF></metadata><defs id="defs6"/><g transform="matrix(1.3333333,0,0,-1.3333333,0,278.77333)" id="g10"><g transform="scale(0.1)" id="g12"><path id="path14" style="fill:#47c1b7;fill-opacity:1;fill-rule:nonzero;stroke:none" d="M 156.379,531.57 V 450.309 H 91.7344 V 174.441 H 0 v 353 c 0,95.188 57.0078,166.079 159.836,154.27 V 595.539 C 116.082,599 92.4531,580.941 91.7344,531.57 h 64.6446"/><path id="path16" style="fill:#47c1b7;fill-opacity:1;fill-rule:nonzero;stroke:none" d="m 396.805,166.75 c -100.086,0 -159.16,66.039 -159.16,159.84 v 206.379 h 91.73 V 323.801 c 0,-20.121 6.965,-68.102 67.43,-68.102 40.297,0 69.453,28.531 69.453,68.102 v 209.168 h 91.73 V 326.59 c 0,-91.008 -63.925,-159.84 -161.183,-159.84"/><path id="path18" style="fill:#47c1b7;fill-opacity:1;fill-rule:nonzero;stroke:none" d="m 801.156,175.781 c -104.937,-11.09 -160.508,52.16 -160.508,150.141 v 298.109 h 91.735 v -91.062 h 64.597 v -81.27 h -64.597 v -126.5 c 0,-50 22.91,-68.777 68.773,-65.988 v -83.43"/><path id="path20" style="fill:#47c1b7;fill-opacity:1;fill-rule:nonzero;stroke:none" d="m 1043.65,166.75 c -100.084,0 -159.158,66.039 -159.158,159.84 v 206.379 h 91.731 V 323.801 c 0,-20.121 6.965,-68.102 67.427,-68.102 40.3,0 69.45,28.531 69.45,68.102 v 209.168 h 91.74 V 326.59 c 0,-91.008 -63.93,-159.84 -161.19,-159.84"/><path id="path22" style="fill:#47c1b7;fill-opacity:1;fill-rule:nonzero;stroke:none" d="m 1489.02,453.77 c -58.4,10.421 -97.3,-20.848 -97.3,-71.571 v -207.09 h -91.74 v 207.09 c 0,101.442 70.22,172.332 189.04,157.731 v -86.16"/><path id="path24" style="fill:#47c1b7;fill-opacity:1;fill-rule:nonzero;stroke:none" d="m 1778.06,429.461 c -16.67,20.129 -41.69,31.937 -70.89,31.937 -52.79,0 -95.19,-41.679 -97.26,-102.816 z m 102.87,-140.379 c -20.89,-72.961 -84.1,-122.332 -173.04,-122.332 -101.49,0 -183.47,83.43 -183.47,186.93 0,103.55 81.98,188.359 183.47,188.359 86.16,0 158.44,-54.219 175.78,-150.129 L 1630.75,285.621 c 18.06,-24.351 45.15,-38.23 76.42,-38.23 29.92,0 60.46,13.211 75.74,41.691 h 98.02"/><path id="path26" style="fill:#47c1b7;fill-opacity:1;fill-rule:nonzero;stroke:none" d="M 2030.25,507.27 V 175.109 h -26.41 v 382.879 c 0,79.242 45.19,129.961 122.32,123 v -23.629 c -66.71,4.18 -95.91,-37.507 -95.91,-101.437 v -22.953 h 95.91 V 507.27 h -95.91"/><path id="path28" style="fill:#47c1b7;fill-opacity:1;fill-rule:nonzero;stroke:none" d="m 2355.45,515.629 c -84.09,0 -152.92,-73 -152.92,-162.629 0,-88.27 68.83,-160.512 152.92,-160.512 84.05,0 152.88,72.242 152.88,160.512 0,89.629 -68.83,162.629 -152.88,162.629 z m 178.57,-340.52 h -25.69 v 86.161 c -29.2,-56.29 -86.17,-94.52 -152.88,-94.52 -98.69,0 -178.61,83.43 -178.61,186.25 0,104.23 79.92,189.039 178.61,189.039 98.65,0 178.57,-84.809 178.57,-189.039 V 175.109"/><path id="path30" style="fill:#47c1b7;fill-opacity:1;fill-rule:nonzero;stroke:none" d="m 3155.22,175.109 h -25.7 v 230.723 c 0,63.93 -46.58,109.797 -110.51,109.797 -63.21,0 -109.79,-45.867 -109.79,-109.797 V 175.109 h -25.7 v 230.723 c 0,63.93 -46.58,109.797 -110.51,109.797 -63.2,0 -109.79,-45.867 -109.79,-109.797 V 175.109 h -26.41 v 230.723 c 0,78.527 57.68,136.207 136.2,136.207 58.4,0 103.55,-31.309 123,-79.238 20.17,47.929 65.32,79.238 123,79.238 79.25,0 136.21,-57.68 136.21,-136.207 V 175.109"/><path id="path32" style="fill:#47c1b7;fill-opacity:1;fill-rule:nonzero;stroke:none" d="m 3288.55,175.109 h -25.7 v 357.86 h 25.7 z m 0,418.321 h -25.7 v 63.929 h 25.7 V 593.43"/><path id="path34" style="fill:#47c1b7;fill-opacity:1;fill-rule:nonzero;stroke:none" d="m 3554.67,198.738 v -23.629 c -77.13,-6.961 -121.6,43.801 -121.6,123.672 v 393.348 h 25.69 V 298.781 c 0,-61.14 27.81,-102.832 95.91,-100.043"/><path id="path36" style="fill:#47c1b7;fill-opacity:1;fill-rule:nonzero;stroke:none" d="M 3934.72,150.09 C 3934.72,61.8594 3873.63,0 3785.4,0 3710.29,0 3653.33,47.9297 3639.44,118.148 h 27.09 c 12.49,-54.898 59.03,-92.4488 118.87,-92.4488 73.58,0 123,50.0391 123,124.3908 v 84.09 c -24.35,-41.692 -68.1,-67.43 -124.44,-67.43 -86.83,0 -150.09,63.262 -150.09,150.141 v 216.078 h 25.7 V 316.891 c 0,-72.282 52.78,-124.403 124.39,-124.403 72.24,0 124.44,52.121 124.44,124.403 v 216.078 h 26.32 V 150.09"/><path id="path38" style="fill:#47c1b7;fill-opacity:1;fill-rule:nonzero;stroke:none" d="m 1981.92,1810.09 v -150.81 h -119.86 v -511.63 h -170.08 v 654.71 c 0,176.55 105.66,307.99 296.41,286.07 v -159.79 c -81.23,6.42 -125.03,-27.09 -126.33,-118.55 h 119.86"/><path id="path40" style="fill:#47c1b7;fill-opacity:1;fill-rule:nonzero;stroke:none" d="m 2316.82,1810.09 v -150.81 h -119.86 v -511.63 h -170.12 v 654.71 c 0,176.55 105.7,307.99 296.45,286.07 v -159.79 c -81.22,6.42 -125.02,-27.09 -126.33,-118.55 h 119.86"/></g></g></svg>