<?xml version="1.0" encoding="UTF-8"?>
<!-- Generator: Adobe Illustrator 18.0.0, SVG Export Plug-In . SVG Version: 6.00 Build 0)  -->
<!DOCTYPE svg PUBLIC "-//W3C//DTD SVG 1.1//EN" "http://www.w3.org/Graphics/SVG/1.1/DTD/svg11.dtd">
<svg version="1.1" id="Слой_1" xmlns="http://www.w3.org/2000/svg" xmlns:xlink="http://www.w3.org/1999/xlink" x="0px" y="0px" viewBox="0 0 217 67" enable-background="new 0 0 217 67" xml:space="preserve">

<!-- W bubble -->
<path fill-rule="evenodd" clip-rule="evenodd" fill="#ffd274" d="M48.9,66.4l-9.4-9.1c0,0-12.7,2.9-22.4-1.5C9.9,52.5,3,45.5,1.4,37.1  C-3.4,11.7,14.9,1.5,29.9,0.9c28.6-1.3,33.7,16.5,33.3,30.3c-0.6,17.6-16.6,24.3-16.6,24.3l3.6,10.1C50.2,65.6,50.8,67.8,48.9,66.4z  "/>
<!-- e bubble -->
<path fill-rule="evenodd" clip-rule="evenodd" fill="#fea100" d="M61.8,53.2c0,0-4.7-1.3-7.6-6.4c-1.6-2.8-2.7-6.8-2-11.9  c0.7-4.9,4-9.6,9.1-12c5.3-2.4,12.9-2.5,19.3,1.3c3.8,2.3,6.7,6.2,7.6,10.6c1.3,6.1-0.7,12.1-4.1,15.7c-6,6.3-16.1,4.7-16.1,4.7  s-11,7.7-11.4,8c-0.8,0.5-2.1,0.5-0.9-1.5C56.9,59.8,61.8,53.2,61.8,53.2z"/>
<!-- w -->
<path fill="#FFF" d="M23,45.3l6.5-0.6l3.9-15.9l6.9,14.9l6.5-0.6L53,15.2L45.3,16l-3.2,15.9l-6.7-15l-6.4,0.6l-3.6,16l-6.2-15  l-7.8,0.8L23,45.3z"/>
<!-- e -->
<path fill="#fff" d="M67.1,37.2c0.2-1.1,0.6-2,1.2-2.6c0.6-0.6,1.3-1,2.3-1c0.9,0,1.7,0.3,2.3,1c0.6,0.6,1,1.5,1.1,2.6H67.1z   M76.1,48c1.4-0.7,2.6-1.7,3.5-2.9L75.8,42c-0.7,0.7-1.4,1.2-2.1,1.5C73,43.8,72.3,44,71.4,44c-1.1,0-2-0.3-2.8-0.8  c-0.7-0.5-1.2-1.3-1.5-2.4h13.2c0-0.2,0-0.5,0-0.7c0-0.2,0-0.5,0-0.7c0-1.5-0.2-2.8-0.6-4.1c-0.4-1.3-1-2.4-1.8-3.4  c-0.8-1-1.8-1.8-3.1-2.4c-1.3-0.6-2.7-0.9-4.4-0.9c-1.5,0-2.8,0.3-4,0.8c-1.2,0.5-2.3,1.3-3.2,2.2c-0.9,0.9-1.6,2-2.1,3.3  c-0.5,1.3-0.7,2.6-0.7,4v0.1c0,1.5,0.3,2.9,0.8,4.2c0.5,1.3,1.3,2.3,2.2,3.2c0.9,0.9,2,1.6,3.3,2.1c1.3,0.5,2.7,0.7,4.3,0.7  C73,49.1,74.7,48.8,76.1,48z"/>
<!-- x -->
<path fill="#fea100" d="M87.2,50h5.5l5-7.6l5,7.6h5.7l-7.7-11.3l7.4-10.8h-5.5L97.8,35l-4.7-7.2h-5.7l7.4,10.9L87.2,50z"/>
<!-- c -->
<path fill="#fea100" d="M122.2,49.5c1.1-0.6,2-1.3,2.8-2.2l-2.8-2.8c-0.6,0.5-1.2,1-1.8,1.3c-0.6,0.3-1.3,0.5-2.1,0.5  c-0.7,0-1.2-0.1-1.8-0.4c-0.5-0.2-1-0.6-1.4-1c-0.4-0.4-0.7-0.9-0.9-1.5c-0.2-0.6-0.3-1.2-0.3-1.8v-0.1c0-0.6,0.1-1.2,0.3-1.8  c0.2-0.6,0.5-1,0.9-1.5c0.4-0.4,0.8-0.8,1.3-1c0.5-0.2,1-0.4,1.7-0.4c0.9,0,1.6,0.2,2.2,0.5c0.6,0.3,1.1,0.8,1.7,1.4l2.9-3.2  c-0.8-0.9-1.7-1.6-2.8-2.1c-1.1-0.5-2.4-0.8-4-0.8c-1.3,0-2.5,0.2-3.6,0.7c-1.1,0.5-2,1.1-2.8,1.9c-0.8,0.8-1.4,1.7-1.8,2.8  c-0.4,1.1-0.7,2.2-0.7,3.4v0.1c0,1.2,0.2,2.3,0.7,3.4c0.4,1.1,1.1,2,1.8,2.8c0.8,0.8,1.7,1.4,2.8,1.9c1.1,0.5,2.3,0.7,3.5,0.7  C119.8,50.3,121.1,50,122.2,49.5z"/>
<!-- h -->
<path fill="#fea100" d="M126.7,50h4.8v-9.4c0-1.1,0.3-2,0.8-2.6c0.5-0.6,1.3-0.9,2.2-0.9c0.9,0,1.6,0.3,2.2,0.9  c0.5,0.6,0.8,1.4,0.8,2.6V50h4.8V39c0-2-0.5-3.5-1.5-4.6c-1-1.1-2.4-1.7-4.3-1.7c-0.6,0-1.2,0.1-1.6,0.2c-0.5,0.1-0.9,0.4-1.3,0.6  c-0.4,0.3-0.8,0.5-1.1,0.9c-0.3,0.3-0.6,0.7-0.9,1v-8.6h-4.8V50z"/>
<!-- a -->
<path fill="#fea100" d="M149.4,46.4c-0.5-0.4-0.7-0.9-0.7-1.5v-0.1c0-0.8,0.3-1.3,0.9-1.7c0.6-0.4,1.4-0.6,2.4-0.6  c0.6,0,1.1,0.1,1.7,0.2c0.5,0.1,1,0.3,1.4,0.5V44c0,0.9-0.3,1.6-1,2.2c-0.7,0.5-1.6,0.8-2.7,0.8C150.5,46.9,149.9,46.8,149.4,46.4z   M152.8,49.7c0.8-0.4,1.5-0.9,2.1-1.6V50h4.7v-9.8c0-1.1-0.1-2.2-0.4-3.1c-0.3-0.9-0.8-1.7-1.4-2.3c-0.6-0.6-1.4-1.1-2.3-1.4  c-0.9-0.3-2.1-0.5-3.4-0.5c-1.4,0-2.7,0.1-3.7,0.4c-1,0.3-2,0.6-2.9,1l1.2,3.7c0.8-0.3,1.5-0.5,2.2-0.7c0.7-0.2,1.5-0.2,2.5-0.2  c1.2,0,2.1,0.3,2.7,0.8c0.6,0.5,0.9,1.3,0.9,2.3v0.3c-0.6-0.2-1.2-0.4-1.9-0.5c-0.6-0.1-1.4-0.2-2.3-0.2c-1,0-1.9,0.1-2.8,0.3  c-0.8,0.2-1.6,0.6-2.2,1c-0.6,0.4-1.1,1-1.4,1.7c-0.3,0.7-0.5,1.5-0.5,2.4v0.1c0,0.8,0.2,1.6,0.5,2.2c0.3,0.6,0.7,1.2,1.2,1.6  c0.5,0.4,1.1,0.8,1.9,1c0.7,0.2,1.5,0.3,2.3,0.3C151,50.3,152,50.1,152.8,49.7z"/>
<!-- n -->
<path fill="#fea100" d="M162.3,50h4.8v-9.4c0-1.1,0.3-2,0.8-2.6c0.5-0.6,1.3-0.9,2.2-0.9c0.9,0,1.6,0.3,2.2,0.9  c0.5,0.6,0.8,1.4,0.8,2.6V50h4.8V39c0-2-0.5-3.5-1.5-4.6c-1-1.1-2.4-1.7-4.3-1.7c-0.6,0-1.2,0.1-1.6,0.2c-0.5,0.1-0.9,0.4-1.3,0.6  c-0.4,0.3-0.8,0.5-1.1,0.9c-0.3,0.3-0.6,0.7-0.9,1V33h-4.8V50z"/>
<!-- g -->
<path fill="#fea100" d="M185.8,43.5c-0.8-0.7-1.2-1.7-1.2-2.8v-0.1c0-0.6,0.1-1.1,0.3-1.6c0.2-0.5,0.5-0.9,0.9-1.2  c0.4-0.3,0.8-0.6,1.3-0.8c0.5-0.2,1-0.3,1.6-0.3c0.6,0,1.1,0.1,1.6,0.3c0.5,0.2,0.9,0.5,1.3,0.8c0.4,0.3,0.7,0.8,0.9,1.2  c0.2,0.5,0.3,1,0.3,1.6v0.1c0,0.6-0.1,1.1-0.3,1.6c-0.2,0.5-0.5,0.9-0.9,1.2c-0.4,0.3-0.8,0.6-1.3,0.8c-0.5,0.2-1.1,0.3-1.6,0.3  C187.6,44.6,186.6,44.2,185.8,43.5z M192.5,54.5c1.2-0.4,2.2-0.9,3-1.7c1.4-1.4,2.2-3.7,2.2-6.7V33h-4.8v2.2  c-0.7-0.7-1.4-1.3-2.2-1.8c-0.8-0.5-1.9-0.7-3.2-0.7c-1,0-1.9,0.2-2.8,0.5c-0.9,0.3-1.7,0.9-2.4,1.5c-0.7,0.7-1.3,1.5-1.7,2.5  c-0.4,1-0.6,2.1-0.6,3.4v0.1c0,1.3,0.2,2.4,0.6,3.4c0.4,1,1,1.8,1.7,2.5c0.7,0.7,1.5,1.2,2.4,1.5c0.9,0.3,1.9,0.5,2.8,0.5  c1.3,0,2.4-0.2,3.2-0.7c0.8-0.5,1.6-1.2,2.3-2v0.8c0,1.5-0.4,2.7-1.2,3.4c-0.8,0.8-2,1.2-3.7,1.2c-1.1,0-2.2-0.1-3.1-0.4  c-0.9-0.3-1.8-0.7-2.7-1.1l-1.6,3.6c1.1,0.6,2.2,1,3.5,1.3c1.3,0.3,2.6,0.5,4,0.5C189.8,55.1,191.3,54.9,192.5,54.5z"/>
<!-- e -->
<path fill="#fea100" d="M204.4,40.1c0.2-1.1,0.6-2,1.2-2.6c0.6-0.7,1.4-1,2.5-1c1,0,1.8,0.3,2.4,1c0.6,0.7,1,1.5,1.1,2.6H204.4z   M212.6,49.5c1.1-0.6,2.1-1.3,2.9-2.3l-2.8-2.4c-0.7,0.6-1.3,1.1-2,1.3c-0.6,0.3-1.4,0.4-2.2,0.4c-1.1,0-2-0.3-2.7-0.8  c-0.7-0.6-1.2-1.4-1.4-2.5h11.8c0-0.2,0-0.5,0-0.7c0-0.2,0-0.4,0-0.6c0-1.2-0.2-2.4-0.5-3.5c-0.3-1.1-0.8-2.1-1.5-2.9  c-0.7-0.9-1.5-1.5-2.6-2c-1-0.5-2.3-0.8-3.7-0.8c-1.2,0-2.4,0.2-3.4,0.7c-1,0.5-1.9,1.1-2.6,1.9c-0.7,0.8-1.3,1.7-1.7,2.8  c-0.4,1.1-0.6,2.2-0.6,3.4v0.1c0,1.3,0.2,2.5,0.7,3.6c0.4,1.1,1.1,2,1.9,2.8c0.8,0.8,1.7,1.4,2.8,1.8c1.1,0.4,2.3,0.6,3.5,0.6  C210.1,50.3,211.5,50.1,212.6,49.5z"/>
</svg>